# xmcd
#
# Track frame offsets: 
#        150
#        13915
#        27462
#        39807
#        53585
#        63672
#        76802
#        87620
#        100667
#        112752
#        125642
#        137535
#        150672
#        165087
#
# Disc length: 2367 seconds
#
# Revision: 6
# Processed by: cddbd v1.5.2PL0 Copyright (c) Steve Scherf et al.
# Submitted via: ExactAudioCopy v0.95b4
#
DISCID=a2093d0e
DTITLE=King, Albert and Rush, Otis - Door To Door
DYEAR=1969
DGENRE=Blues
TTITLE0=Albert King - Searchin' For A Woman
TTITLE1=Albert King - Bad Luck
TTITLE2=Otis Rush - So Close
TTITLE3=Albert King - Howlin' For My Darling
TTITLE4=Otis Rush - I Can't Stop
TTITLE5=Albert King - Won't Be Hangin' Around
TTITLE6=Otis Rush - I'm Satisfied
TTITLE7=Otis Rush - All Your Love
TTITLE8=Otis Rush - You Know My Love
TTITLE9=Albert King - Merry Way
TTITLE10=Albert King - Wild Women
TTITLE11=Albert King - Murder
TTITLE12=Otis Rush - So Many Roads
TTITLE13=Albert King - California
EXTD=
EXTT0=
EXTT1=
EXTT2=
EXTT3=
EXTT4=
EXTT5=
EXTT6=
EXTT7=
EXTT8=
EXTT9=
EXTT10=
EXTT11=
EXTT12=
EXTT13=
PLAYORDER=
